HIERARCHY
ROOT hip
{
  OFFSET 0 0 0
  CHANNELS 6 Xposition Yposition Zposition Zrotation Yrotation Xrotation
  JOINT abdomen
  {
    OFFSET 0 20.6881 -0.73152
    CHANNELS 3 Zrotation Xrotation Yrotation
    JOINT chest
    {
      OFFSET 0 11.7043 -0.48768
      CHANNELS 3 Zrotation Xrotation Yrotation
      JOINT neck
      {
        OFFSET 0 22.1894 -2.19456
        CHANNELS 3 Zrotation Xrotation Yrotation
        JOINT head
        {
          OFFSET -0.24384 7.07133 1.2192
          CHANNELS 3 Zrotation Xrotation Yrotation
          JOINT leftEye
          {
            OFFSET 4.14528 8.04674 8.04672
            CHANNELS 3 Zrotation Xrotation Yrotation
            End Site
            {
              OFFSET 1 0 0
            }
          }
          JOINT rightEye
          {
            OFFSET -3.6576 8.04674 8.04672
            CHANNELS 3 Zrotation Xrotation Yrotation
            End Site
            {
              OFFSET 1 0 0
            }
          }
        }
      }
      JOINT rCollar
      {
        OFFSET -2.68224 19.2634 -4.8768
        CHANNELS 3 Zrotation Xrotation Yrotation
        JOINT rShldr
        {
          OFFSET -8.77824 -1.95073 1.46304
          CHANNELS 3 Zrotation Xrotation Yrotation
          JOINT rForeArm
          {
            OFFSET -28.1742 -1.7115 0.48768
            CHANNELS 3 Zrotation Xrotation Yrotation
            JOINT rHand
            {
              OFFSET -22.5879 0.773209 7.07136
              CHANNELS 3 Zrotation Xrotation Yrotation
              JOINT rThumb1
              {
                OFFSET -1.2192 -0.487915 3.41376
                CHANNELS 3 Zrotation Xrotation Yrotation
                JOINT rThumb2
                {
                  OFFSET -3.37035 -0.52449 3.41376
                  CHANNELS 3 Zrotation Xrotation Yrotation
                  End Site
                  {
                    OFFSET -1.78271 -1.18214 1.43049
                  }
                }
              }
              JOINT rIndex1
              {
                OFFSET -7.75947 0.938293 5.60832
                CHANNELS 3 Zrotation Xrotation Yrotation
                JOINT rIndex2
                {
                  OFFSET -2.54057 -0.884171 1.56538
                  CHANNELS 3 Zrotation Xrotation Yrotation
                  End Site
                  {
                    OFFSET -1.62519 -0.234802 1.16502
                  }
                }
              }
              JOINT rMid1
              {
                OFFSET -8.24714 1.18213 3.41376
                CHANNELS 3 Zrotation Xrotation Yrotation
                JOINT rMid2
                {
                  OFFSET -3.10165 -0.590103 1.0647
                  CHANNELS 3 Zrotation Xrotation Yrotation
                  End Site
                  {
                    OFFSET -2.48547 -0.328903 0.83742
                  }
                }
              }
              JOINT rRing1
              {
                OFFSET -8.82822 0.546677 1.51678
                CHANNELS 3 Zrotation Xrotation Yrotation
                JOINT rRing2
                {
                  OFFSET -2.60934 -0.819778 -0.0198488
                  CHANNELS 3 Zrotation Xrotation Yrotation
                  End Site
                  {
                    OFFSET -2.33842 -0.294052 0.168128
                  }
                }
              }
              JOINT rPinky1
              {
                OFFSET -8.27202 -0.0477905 -0.4584
                CHANNELS 3 Zrotation Xrotation Yrotation
                JOINT rPinky2
                {
                  OFFSET -1.82734 -0.647385 -0.700984
                  CHANNELS 3 Zrotation Xrotation Yrotation
                  End Site
                  {
                    OFFSET -1.69225 -0.51767 -0.607171
                  }
                }
              }
            }
          }
        }
      }
      JOINT lCollar
      {
        OFFSET 2.68224 19.2634 -4.8768
        CHANNELS 3 Zrotation Xrotation Yrotation
        JOINT lShldr
        {
          OFFSET 8.77824 -1.95073 1.46304
          CHANNELS 3 Zrotation Xrotation Yrotation
          JOINT lForeArm
          {
            OFFSET 28.1742 -1.7115 0.48768
            CHANNELS 3 Zrotation Xrotation Yrotation
            JOINT lHand
            {
              OFFSET 22.5879 0.773209 7.07136
              CHANNELS 3 Zrotation Xrotation Yrotation
              JOINT lThumb1
              {
                OFFSET 1.2192 -0.487915 3.41376
                CHANNELS 3 Zrotation Xrotation Yrotation
                JOINT lThumb2
                {
                  OFFSET 3.37035 -0.52449 3.41376
                  CHANNELS 3 Zrotation Xrotation Yrotation
                  End Site
                  {
                    OFFSET 1.78271 -1.18214 1.43049
                  }
                }
              }
              JOINT lIndex1
              {
                OFFSET 7.75947 0.938293 5.60832
                CHANNELS 3 Zrotation Xrotation Yrotation
                JOINT lIndex2
                {
                  OFFSET 2.54057 -0.884171 1.56538
                  CHANNELS 3 Zrotation Xrotation Yrotation
                  End Site
                  {
                    OFFSET 1.62519 -0.234802 1.16502
                  }
                }
              }
              JOINT lMid1
              {
                OFFSET 8.24714 1.18213 3.41376
                CHANNELS 3 Zrotation Xrotation Yrotation
                JOINT lMid2
                {
                  OFFSET 3.10165 -0.590103 1.0647
                  CHANNELS 3 Zrotation Xrotation Yrotation
                  End Site
                  {
                    OFFSET 2.48547 -0.328903 0.83742
                  }
                }
              }
              JOINT lRing1
              {
                OFFSET 8.82822 0.546677 1.51678
                CHANNELS 3 Zrotation Xrotation Yrotation
                JOINT lRing2
                {
                  OFFSET 2.60934 -0.819778 -0.0198488
                  CHANNELS 3 Zrotation Xrotation Yrotation
                  End Site
                  {
                    OFFSET 2.33842 -0.294052 0.168128
                  }
                }
              }
              JOINT lPinky1
              {
                OFFSET 8.27202 -0.0477905 -0.4584
                CHANNELS 3 Zrotation Xrotation Yrotation
                JOINT lPinky2
                {
                  OFFSET 1.82734 -0.647385 -0.700984
                  CHANNELS 3 Zrotation Xrotation Yrotation
                  End Site
                  {
                    OFFSET 1.69225 -0.51767 -0.607171
                  }
                }
              }
            }
          }
        }
      }
    }
  }
  JOINT rButtock
  {
    OFFSET -8.77824 4.35084 1.2192
    CHANNELS 3 Zrotation Xrotation Yrotation
    JOINT rThigh
    {
      OFFSET 0 -1.70687 -2.19456
      CHANNELS 3 Zrotation Xrotation Yrotation
      JOINT rShin
      {
        OFFSET 0 -36.8199 0.73152
        CHANNELS 3 Zrotation Xrotation Yrotation
        JOINT rFoot
        {
          OFFSET 0.73152 -45.1104 -5.12064
          CHANNELS 3 Zrotation Xrotation Yrotation
          End Site
          {
            OFFSET -1.1221 -3.69964 12.103
          }
        }
      }
    }
  }
  JOINT lButtock
  {
    OFFSET 8.77824 4.35084 1.2192
    CHANNELS 3 Zrotation Xrotation Yrotation
    JOINT lThigh
    {
      OFFSET 0 -1.70687 -2.19456
      CHANNELS 3 Zrotation Xrotation Yrotation
      JOINT lShin
      {
        OFFSET 0 -36.8199 0.73152
        CHANNELS 3 Zrotation Xrotation Yrotation
        JOINT lFoot
        {
          OFFSET -0.73152 -45.1104 -5.12064
          CHANNELS 3 Zrotation Xrotation Yrotation
          End Site
          {
            OFFSET 1.1221 -3.69964 12.103
          }
        }
      }
    }
  }
}
MOTION
Frames:	6
Frame Time:	0.00833333
184.833 45.1077 31.9265 0.0 0.0 0.0 -0.385176 -0.00168827 -0.0109953 -0.106228 -0.00256737 -0.0184039 7.2209e-15 7.95139e-16 3.72721e-17 2.16303e-14 9.54166e-15 8.85213e-17 -0.0 0.0 0.0 -0.0 0.0 0.0 3.72604e-15 5.43552e-18 9.93923e-17 7.79092e-14 5.15598e-16 1.59028e-15 1.30472e-12 -3.8445e-13 -9.54166e-15 1.49203e-11 4.16851e-13 9.22361e-14 3.51934e-11 6.37584e-14 1.74931e-13 6.07637e-11 1.11319e-13 3.02153e-13 3.51976e-11 6.32135e-14 1.74931e-13 7.73091 5.47488 0.417314 3.51925e-11 6.37105e-14 1.78111e-13 2.90554 0.965183 0.102902 3.52023e-11 6.38099e-14 1.74135e-13 10.2786 0.731801 0.0259123 3.51887e-11 6.63941e-14 1.78111e-13 2.22167 -0.733487 -0.20892 3.62923e-15 6.60027e-18 -9.93923e-17 7.43997e-14 1.98785e-16 -3.97569e-16 1.30229e-12 3.95383e-13 -1.27222e-14 1.49149e-11 -3.6472e-13 1.01778e-13 3.51836e-11 6.36699e-14 1.7175e-13 6.07768e-11 1.08139e-13 2.97382e-13 3.51773e-11 6.24184e-14 1.7175e-13 -7.73091 5.47488 -0.417314 3.51841e-11 6.33129e-14 1.68569e-13 -2.90554 0.965183 -0.102902 3.51772e-11 6.37105e-14 1.74931e-13 -10.2786 0.731801 -0.0259123 3.51893e-11 6.52014e-14 1.68569e-13 -2.22167 -0.733487 0.20892 -2.03217e-16 0.0 -3.88251e-19 0.221306 -2.58359 -0.0280735 -0.00748705 -0.87258 -0.0651178 -0.512752 3.45575 0.129295 2.03217e-16 0.0 3.88251e-19 -0.808119 -4.0708 0.0654028 0.00325823 1.82131 0.024454 0.51807 2.24914 -0.105229
197.93 56.3399 35.6817 20.6041 -16.1226 -13.7594 0.883991 -1.7837 -1.34452 1.08864 -0.196929 -0.437547 -4.74306 4.18638 -4.1579 7.82419 1.19871 -9.46617 -0.0 0.0 0.0 -0.0 0.0 0.0 3.98925e-14 2.0623e-12 -1.10401e-13 18.3915 18.7777 4.50695 -9.08245 -5.94754 11.671 0.00821425 -2.05167 -0.287714 -8.98155e-11 7.27448e-10 7.29575e-10 -1.60764e-10 1.26128e-09 1.26231e-09 -8.98118e-11 7.27446e-10 7.29574e-10 7.73091 5.47488 0.417314 -8.98173e-11 7.27447e-10 7.29577e-10 2.90554 0.965183 0.102902 -8.98069e-11 7.27446e-10 7.29574e-10 10.2786 0.731801 0.0259123 -8.9821e-11 7.27449e-10 7.29579e-10 2.22167 -0.733487 -0.20892 3.97909e-14 2.0623e-12 -1.10584e-13 -19.0721 27.6188 -13.4254 29.295 -26.4018 -12.6615 5.39837e-05 -0.184369 0.0259141 -1.94181e-11 1.94634e-09 -7.18122e-10 -3.10851e-11 3.36715e-09 -1.24277e-09 -1.94247e-11 1.94635e-09 -7.18123e-10 -7.73091 5.47488 -0.417314 -1.94193e-11 1.94635e-09 -7.18127e-10 -2.90554 0.965183 -0.102902 -1.94253e-11 1.94634e-09 -7.1812e-10 -10.2786 0.731801 -0.0259123 -1.94123e-11 1.94634e-09 -7.18127e-10 -2.22167 -0.733487 0.20892 -2.03217e-16 0.0 -3.88251e-19 1.3634 -5.46613 -0.27392 -0.00229033 3.59049 0.0283951 -0.468619 1.5991 -3.44677 2.03217e-16 0.0 3.88251e-19 1.77291 -7.63511 -0.92806 -0.00675194 6.09176 -0.0500854 0.405287 0.692352 0.793973
237.699 70.1119 34.9353 -52.4307 -81.9169 57.488 2.13684 -3.66044 -2.73516 2.35356 -0.420201 -0.873491 -9.07421 8.55065 -8.63661 16.4765 2.3425 -19.4988 -0.0 0.0 0.0 -0.0 0.0 0.0 7.66667e-14 4.40251e-12 -2.31885e-13 33.8258 38.2212 11.1851 -16.134 -11.468 24.4599 -0.00590027 -4.26752 -0.599742 -2.18351e-10 1.51729e-09 1.53385e-09 -3.88919e-10 2.6308e-09 2.65393e-09 -2.18348e-10 1.51728e-09 1.53384e-09 7.73091 5.47488 0.417314 -2.18354e-10 1.51728e-09 1.53385e-09 2.90554 0.965183 0.102902 -2.18342e-10 1.51728e-09 1.53385e-09 10.2786 0.731801 0.0259123 -2.18357e-10 1.51729e-09 1.53385e-09 2.22167 -0.733487 -0.20892 7.65579e-14 4.40251e-12 -2.3205e-13 -18.6124 50.6275 -40.6109 42.12 -49.1912 -37.2169 0.000369448 -0.350899 0.0493243 -8.576e-11 4.12675e-09 -1.52042e-09 -1.43078e-10 7.13921e-09 -2.63114e-09 -8.5767e-11 4.12675e-09 -1.52042e-09 -7.73091 5.47488 -0.417314 -8.57629e-11 4.12676e-09 -1.52042e-09 -2.90554 0.965183 -0.102902 -8.57681e-11 4.12675e-09 -1.52041e-09 -10.2786 0.731801 -0.0259123 -8.57539e-11 4.12675e-09 -1.52042e-09 -2.22167 -0.733487 0.20892 -2.03217e-16 0.0 -3.88251e-19 2.54417 -8.51182 -0.539231 -0.012751 8.3075 0.128477 -0.673376 -0.355579 -7.22388 2.03217e-16 0.0 3.88251e-19 4.36583 -11.3974 -1.99901 -0.00505027 10.6041 -0.130462 0.338951 -0.954606 1.74044
237.751 70.1045 34.9147 -52.8818 -82.0308 57.9397 3.17278 -5.33606 -4.0271 3.46986 -0.585523 -1.27589 -12.3863 12.2918 -12.7371 24.6084 3.20673 -28.4408 -0.0 0.0 0.0 -0.0 0.0 0.0 1.12225e-13 6.18689e-12 -3.31402e-13 41.0314 54.402 22.3709 -20.2825 -14.8702 36.2148 -0.0374753 -6.15439 -0.867589 -3.39833e-10 2.18222e-09 2.18837e-09 -6.03819e-10 3.78361e-09 3.78634e-09 -3.39831e-10 2.18221e-09 2.18837e-09 7.73091 5.47488 0.417314 -3.39837e-10 2.18221e-09 2.18837e-09 2.90554 0.965183 0.102902 -3.39825e-10 2.18221e-09 2.18837e-09 10.2786 0.731801 0.0259123 -3.3984e-10 2.18221e-09 2.18838e-09 2.22167 -0.733487 -0.20892 1.12114e-13 6.18689e-12 -3.31553e-13 5.00501 54.0602 -82.8275 30.99 -54.9776 -76.7925 0.000662295 -0.553105 0.0777454 -1.28622e-10 5.8389e-09 -2.15471e-09 -2.14809e-10 1.01012e-08 -3.72891e-09 -1.28629e-10 5.83891e-09 -2.15471e-09 -7.73091 5.47488 -0.417314 -1.28626e-10 5.83892e-09 -2.15472e-09 -2.90554 0.965183 -0.102902 -1.2863e-10 5.8389e-09 -2.15471e-09 -10.2786 0.731801 -0.0259123 -1.28615e-10 5.8389e-09 -2.15472e-09 -2.22167 -0.733487 0.20892 -2.03217e-16 0.0 -3.88251e-19 3.57205 -11.2304 -0.776808 -0.0363282 12.5165 0.220479 -1.07212 -2.06962 -10.6014 2.03217e-16 0.0 3.88251e-19 6.5528 -14.7475 -2.98851 0.00749951 14.6326 -0.204938 0.326319 -2.41856 2.59435
237.78 70.1047 34.9034 -52.1731 -82.0374 57.2055 3.83483 -6.51896 -5.05826 4.22173 -0.606112 -1.59436 -14.4746 14.7346 -15.6359 30.6799 3.73458 -34.6178 -0.0 0.0 0.0 -0.0 0.0 0.0 1.44746e-13 6.5817e-12 -3.76001e-13 37.9031 63.8296 37.7664 -22.1466 -15.9792 44.1877 -0.0643541 -7.21947 -1.02009 -4.43684e-10 2.53487e-09 2.46855e-09 -7.85582e-10 4.39463e-09 4.27072e-09 -4.43681e-10 2.53487e-09 2.46854e-09 7.73091 5.47488 0.417314 -4.43688e-10 2.53487e-09 2.46855e-09 2.90554 0.965183 0.102902 -4.43677e-10 2.53487e-09 2.46855e-09 10.2786 0.731801 0.0259123 -4.43692e-10 2.53487e-09 2.46855e-09 2.22167 -0.733487 -0.20892 1.44645e-13 6.5817e-12 -3.7615e-13 16.5061 44.6358 -104.19 25.1067 -47.826 -99.5645 0.000874747 -0.8445 0.118695 -1.12782e-10 6.38042e-09 -2.36901e-09 -1.85885e-10 1.10381e-08 -4.10022e-09 -1.12789e-10 6.38043e-09 -2.36901e-09 -7.73091 5.47488 -0.417314 -1.12788e-10 6.38044e-09 -2.36902e-09 -2.90554 0.965183 -0.102902 -1.12791e-10 6.38042e-09 -2.36901e-09 -10.2786 0.731801 -0.0259123 -1.12777e-10 6.38042e-09 -2.36902e-09 -2.22167 -0.733487 0.20892 -2.03217e-16 0.0 -3.88251e-19 4.27244 -13.132 -0.935088 -0.0611002 15.4558 0.287032 -1.46869 -3.23486 -12.9669 2.03217e-16 0.0 3.88251e-19 7.99693 -17.0814 -3.71094 0.0227352 17.4513 -0.259346 0.345317 -3.42798 3.21355
237.774 70.1141 34.9114 -49.4952 -81.8822 54.431 4.04883 -7.03208 -5.72862 4.44223 -0.340398 -1.80175 -15.473 15.5204 -16.6808 33.6914 4.01699 -36.9079 -0.0 0.0 0.0 -0.0 0.0 0.0 1.77006e-13 4.72185e-12 -3.37546e-13 33.7857 66.401 46.865 -22.4941 -15.8048 46.4569 -0.0643362 -7.09497 -1.00244 -5.12042e-10 2.43479e-09 2.18651e-09 -9.01967e-10 4.21998e-09 3.78176e-09 -5.12037e-10 2.43478e-09 2.18651e-09 7.73091 5.47488 0.417314 -5.12045e-10 2.43478e-09 2.18651e-09 2.90554 0.965183 0.102902 -5.12037e-10 2.43478e-09 2.18651e-09 10.2786 0.731801 0.0259123 -5.12051e-10 2.43479e-09 2.18652e-09 2.22167 -0.733487 -0.20892 1.7694e-13 4.72185e-12 -3.3771e-13 18.6081 38.8816 -109.505 25.3338 -43.4791 -105.093 0.00145771 -1.2925 0.181661 2.05553e-11 5.04111e-09 -1.92548e-09 4.51586e-11 8.72126e-09 -3.33376e-09 2.05496e-11 5.04112e-09 -1.92547e-09 -7.73091 5.47488 -0.417314 2.05484e-11 5.04113e-09 -1.92549e-09 -2.90554 0.965183 -0.102902 2.0548e-11 5.04111e-09 -1.92548e-09 -10.2786 0.731801 -0.0259123 2.056e-11 5.04111e-09 -1.92549e-09 -2.22167 -0.733487 0.20892 -2.03217e-16 0.0 -3.88251e-19 4.53602 -13.883 -0.986113 -0.0727878 16.6177 0.313819 -1.65049 -3.67819 -13.9129 2.03217e-16 0.0 3.88251e-19 8.52513 -18.0053 -4.02685 0.030209 18.5839 -0.282021 0.361248 -3.79961 3.48701
